<?xml version="1.0" standalone="no"?>
<!DOCTYPE svg PUBLIC "-//W3C//DTD SVG 20010904//EN"
 "http://www.w3.org/TR/2001/REC-SVG-20010904/DTD/svg10.dtd">
<svg version="1.0" xmlns="http://www.w3.org/2000/svg"
 width="400.000000pt" height="400.000000pt" viewBox="0 0 400.000000 400.000000"
 preserveAspectRatio="xMidYMid meet">
<metadata>
Created by potrace 1.14, written by Peter Selinger 2001-2017
</metadata>
<g transform="translate(0.000000,400.000000) scale(0.100000,-0.100000)"
fill="#000000" stroke="none">
<path d="M0 2000 l0 -2000 2000 0 2000 0 0 2000 0 2000 -2000 0 -2000 0 0
-2000z m2080 1630 l0 -110 110 0 110 0 0 -220 0 -220 110 0 110 0 0 -220 0
-220 550 0 550 0 0 -220 0 -220 -110 0 -110 0 0 -110 0 -110 -110 0 -109 0 -3
-107 -3 -108 -107 -3 -108 -3 0 -104 0 -104 108 -3 107 -3 3 -217 2 -218 110
0 110 0 0 -220 0 -220 110 0 110 0 0 -220 0 -220 -330 0 -330 0 0 110 0 110
-220 0 -220 0 0 110 0 110 -220 0 -220 0 0 110 0 110 -110 0 -110 0 0 -110 0
-110 -215 0 -215 0 0 -110 0 -110 -220 0 -220 0 0 -110 0 -110 -330 0 -330 0
0 220 0 220 110 0 110 0 0 220 0 220 110 0 110 0 2 218 3 217 108 3 107 3 0
104 0 104 -107 3 -108 3 -3 108 -3 107 -109 0 -110 0 0 110 0 110 -110 0 -110
0 0 220 0 220 550 0 550 0 0 220 0 220 110 0 110 0 0 220 0 220 105 0 105 0 0
103 c0 57 3 107 7 110 3 4 53 7 110 7 l103 0 0 -110z"/>
<path d="M1860 3300 l0 -220 -105 0 -105 0 0 -220 0 -220 -110 0 -110 0 0
-110 0 -110 -440 0 -440 0 0 -110 0 -110 110 0 110 0 0 -110 0 -110 110 0 110
0 0 -105 0 -104 108 -3 107 -3 0 -110 0 -110 -107 -3 -108 -3 0 -214 0 -215
-110 0 -110 0 0 -220 0 -220 -110 0 -110 0 0 -110 0 -110 220 0 220 0 0 110 0
110 220 0 220 0 0 110 0 110 215 0 214 0 3 108 3 107 108 3 107 3 0 -111 0
-110 220 0 220 0 0 -110 0 -110 220 0 220 0 0 -110 0 -110 220 0 220 0 0 110
0 110 -110 0 -110 0 0 220 0 220 -110 0 -110 0 0 215 0 214 -107 3 -108 3 0
110 0 110 108 3 107 3 0 104 0 105 110 0 110 0 0 110 0 110 110 0 110 0 0 110
0 110 -440 0 -440 0 0 110 0 110 -110 0 -110 0 0 220 0 220 -110 0 -110 0 0
220 0 220 -110 0 -110 0 0 -220z m0 -1210 l0 -330 -105 0 -105 0 0 330 0 330
105 0 105 0 0 -330z m440 0 l0 -331 -107 3 -108 3 -3 328 -2 327 110 0 110 0
0 -330z"/>
</g>
</svg>
